<?xml version="1.0" standalone="no"?>
<!DOCTYPE svg PUBLIC "-//W3C//DTD SVG 1.1//EN" "http://www.w3.org/Graphics/SVG/1.1/DTD/svg11.dtd" >
<svg xmlns="http://www.w3.org/2000/svg">
<metadata>Generated by IcoMoon</metadata>
<defs>
<font id="banchile_iconset" horiz-adv-x="1024">
<font-face units-per-em="1024" ascent="960" descent="-64" />
<missing-glyph horiz-adv-x="1024" />
<glyph unicode="&#x20;" horiz-adv-x="512" d="" />
<glyph unicode="&#xe900;" glyph-name="alerta-info" d="M85.333 448c0 235.947 190.72 426.667 426.667 426.667s426.667-190.72 426.667-426.667c0-235.947-190.72-426.667-426.667-426.667s-426.667 190.72-426.667 426.667zM455.111 265.104v-96.447h93.867v96.447h-93.867zM455.111 650.894v-289.342h93.867v289.342h-93.867z" />
<glyph unicode="&#xe901;" glyph-name="alerta" d="M512 104c41.067 0 74.667 33.6 74.667 74.667h-149.333c0-41.067 33.227-74.667 74.667-74.667zM736 328v186.667c0 114.613-61.227 210.56-168 235.947v25.387c0 30.987-25.013 56-56 56s-56-25.013-56-56v-25.387c-107.147-25.387-168-120.96-168-235.947v-186.667l-74.667-74.667v-37.333h597.333v37.333l-74.667 74.667z" />
<glyph unicode="&#xe902;" glyph-name="aprobado" d="M392.213 269.12l-149.333 149.333c-16.64 16.64-43.093 16.64-59.733 0s-16.64-43.093 0-59.733l178.773-178.773c16.64-16.64 43.52-16.64 60.16 0l452.267 451.84c16.64 16.64 16.64 43.093 0 59.733s-43.093 16.64-59.733 0l-422.4-422.4z" />
<glyph unicode="&#xe903;" glyph-name="fondos-cambio" d="M739.228 549.926c-111.145-3.094-205.776-75.307-245.853-176.949v230.864h-163.894l286.821 300.796 286.809-300.796h-163.883v-53.914zM494.837 164.782l-165.361-173.419-286.809 300.796h163.883v257.869h245.853v-257.869h20.863c-0.25-5.005-0.377-10.045-0.377-15.115 0-39.854 7.821-77.801 21.948-112.263zM746.667 10.11c-129.603 0-234.667 111.729-234.667 249.553s105.064 249.553 234.667 249.553c129.603 0 234.667-111.729 234.667-249.553s-105.064-249.553-234.667-249.553zM712.617 58.546h36.467v50.732c50.884 9.059 78.023 46.203 78.023 87.876 0 43.485-22.898 69.757-74.63 90.594-39.011 16.307-55.973 28.084-55.973 48.015 0 16.307 11.873 34.426 44.1 34.426 31.379 0 51.732-10.871 62.757-16.307l12.721 45.297c-15.265 8.153-34.771 15.401-63.606 16.307v45.297h-37.315v-48.015c-45.796-9.059-73.782-40.767-73.782-83.346 0-45.297 31.379-68.851 79.719-87.876 33.923-13.589 50.036-28.084 50.036-49.826 0-23.554-19.506-38.955-48.34-38.955-27.986 0-54.277 10.871-72.086 21.742l-12.721-46.203c16.961-11.777 45.796-20.837 74.63-21.742v-48.015z" />
<glyph unicode="&#xe904;" glyph-name="aporte-sistematico" d="M932.726 280.194c29.592 0 14.030-18.628-6.365-40.649l-14.252-19.104c-20.396-22.021-26.358-43.68-55.95-43.68h-797.742c-29.591 0-12.298 19.88 9.478 40.452l24.505 26.779c21.776 20.583 43.491 36.201 73.082 36.201h89.852c0.322-31.030 9.961-49.224 22.873-78.96l55.799 0.714c-0.373 0.652-5.137 6.764-5.499 7.416-0.232 0.403-0.483 0.786-0.705 1.189-1.914 3.506-3.636 7.106-5.348 10.736-0.765 1.614-1.551 3.206-2.276 4.851-1.521 3.444-2.881 6.951-4.21 10.498-0.715 1.903-1.38 3.806-2.035 5.741-1.199 3.548-2.286 7.116-3.294 10.757-0.534 1.945-0.917 3.93-1.4 5.906-0.927 3.765-1.662 7.52-2.367 11.367-0.292 1.572-0.131 3.165-0.383 4.748-1.511 9.536-1.944 19.249-1.944 29.178v0.093c0 0.807-0.645 1.593-0.645 2.4 0 108.511 85.441 196.791 191.106 196.791 105.645 0 191.871-88.28 191.871-196.791 0-0.817 0.393-1.593 0.393-2.4v-0.093c0-9.93-1.601-19.642-3.102-29.178-0.242-1.583-0.937-3.186-1.219-4.748-0.705-3.848-1.612-7.602-2.528-11.367-0.483-1.986-0.937-3.961-1.481-5.916-1.007-3.63-2.135-7.209-3.334-10.757-0.655-1.924-1.34-3.848-2.055-5.751-1.33-3.548-2.699-7.075-4.22-10.519-0.725-1.645-1.511-3.268-2.276-4.882-1.712-3.63-3.435-7.323-5.358-10.819-0.222-0.403-0.483-0.931-0.705-1.334-0.363-0.652-7.554-8.554-7.927-9.195l54.842-0.631c12.882 29.727 25.905 49.927 26.227 80.957h198.589zM482.612 210.286v2.147h24.54v32.208c33.742 5.368 51.125 28.987 51.125 55.827 0 27.913-15.337 45.091-49.080 57.974-25.562 10.736-36.81 18.251-36.81 31.134 0 10.736 7.157 22.545 28.63 22.545 20.45 0 33.742-7.515 40.9-10.736l8.18 28.987c-10.225 5.368-22.495 9.662-41.922 10.736v28.987h-24.54v-31.134c-29.652-5.368-48.057-26.84-48.057-53.68 0-30.061 20.45-45.091 52.147-56.9 22.495-8.589 32.72-18.251 32.72-32.208 0-15.030-12.27-24.693-31.697-24.693-18.405 0-35.787 6.442-47.035 13.957l-8.18-30.061c11.247-7.515 29.652-12.883 49.080-13.957v-31.134zM674.071 482.984c2.731 6.811 4.107 14.228 4.107 21.906 0 28.175-15.122 45.513-48.392 58.517-25.204 10.836-36.294 18.422-36.294 31.426 0 10.836 7.057 22.756 28.229 22.756 20.163 0 33.269-7.585 40.326-10.836l8.065 29.258c-10.082 5.418-22.18 9.753-41.335 10.836v29.258h-24.196v-31.426c-29.237-5.418-47.384-27.091-47.384-54.182 0-17.426 6.65-29.847 18.232-39.523-21.247 7.109-43.919 10.95-67.459 10.95-35.789 0-69.569-8.879-99.388-24.619 0.542 115.723 91.556 209.361 203.748 209.361 112.528 0 203.75-94.199 203.75-210.4 0-73.047-36.049-137.4-90.778-175.123-4.937 46.261-23.408 88.313-51.234 121.841z" />
<glyph unicode="&#xe905;" glyph-name="aporte-unico" d="M323.091 310.115c-20.278 33.386-31.954 72.575-31.954 114.491 0 121.979 98.884 220.863 220.863 220.863s220.863-98.884 220.863-220.863c0-43.623-12.647-84.293-34.475-118.541l51.318-0.519c13.156 32.052 26.459 53.835 26.781 87.291l175.276-0.078c30.169 0 14.329-20.083-6.497-43.833l-14.549-20.598c-20.885-23.688-26.972-47.094-57.2-47.094h-814.763c-30.228 0-12.555 21.503 9.68 43.692l25.021 28.915c22.235 22.174 44.411 39.011 74.639 39.011h64.161c0.337-33.456 10.164-53.071 23.364-85.138l64.011 0.765c1.156 0.547 2.309 1.093 3.46 1.636zM488.797 306.766v2.387h25.065v34.657c29.522 2.456 52.28 28.697 52.213 60.202 0 30.101-15.664 48.623-50.131 62.511-26.107 11.563-37.591 19.677-37.591 33.565 0 11.578 7.245 24.312 29.245 24.312 14.59-0.225 28.918-4.163 41.785-11.485l8.36 31.209c-13.269 7.241-27.904 11.199-42.812 11.578v31.209h-25.095v-33.565c-27.785-3.28-48.873-28.151-49.089-57.892 0-32.41 20.885-48.608 53.269-61.341 22.968-9.269 33.411-19.693 33.411-34.735 0-16.197-12.525-26.621-32.369-26.621-17.022 0.109-33.67 5.322-48.033 15.043l-8.36-32.41c15.284-9.346 32.509-14.509 50.131-15.027v-33.596z" />
<glyph unicode="&#xe906;" glyph-name="simulador" d="M896 832h-768c-47.36 0-85.333-37.973-85.333-85.333v-512c0-46.933 37.973-85.333 85.333-85.333h213.333v-85.333h341.333v85.333h213.333c46.933 0 84.907 38.4 84.907 85.333l0.427 512c0 47.36-38.4 85.333-85.333 85.333zM896 234.667h-768v512h768v-512zM682.667 490.667l-298.667-170.667v341.333l298.667-170.667z" />
<glyph unicode="&#xe907;" glyph-name="checkbox-off" d="M810.667 746.667v-597.333h-597.333v597.333h597.333zM810.667 832h-597.333c-46.933 0-85.333-38.4-85.333-85.333v-597.333c0-46.933 38.4-85.333 85.333-85.333h597.333c46.933 0 85.333 38.4 85.333 85.333v597.333c0 46.933-38.4 85.333-85.333 85.333v0 0z" />
<glyph unicode="&#xe908;" glyph-name="checkbox-on" d="M810.667 832h-597.333c-46.933 0-85.333-38.4-85.333-85.333v-597.333c0-46.933 38.4-85.333 85.333-85.333h597.333c46.933 0 85.333 38.4 85.333 85.333v597.333c0 46.933-38.4 85.333-85.333 85.333v0zM426.667 234.667l-213.333 205.128 59.733 57.436 153.6-147.692 324.267 311.795 59.733-57.436-384-369.231z" />
<glyph unicode="&#xe909;" glyph-name="clave" d="M768 590.222h-42.667v81.27c0 112.152-95.573 203.175-213.333 203.175s-213.333-91.022-213.333-203.175v-81.27h-42.667c-46.933 0-85.333-36.571-85.333-81.27v-406.349c0-44.698 38.4-81.27 85.333-81.27h512c46.933 0 85.333 36.571 85.333 81.27v406.349c0 44.698-38.4 81.27-85.333 81.27v0zM512 224.508c-46.933 0-85.333 36.571-85.333 81.27s38.4 81.27 85.333 81.27c46.933 0 85.333-36.571 85.333-81.27s-38.4-81.27-85.333-81.27v0zM644.267 590.222h-264.533v81.27c0 69.486 59.307 125.968 132.267 125.968s132.267-56.483 132.267-125.968v-81.27z" />
<glyph unicode="&#xe90a;" glyph-name="close" d="M810.667 686.933l-59.733 59.733-238.933-238.933-238.933 238.933-59.733-59.733 238.933-238.933-238.933-238.933 59.733-59.733 238.933 238.933 238.933-238.933 59.733 59.733-238.933 238.933z" />
<glyph unicode="&#xe90b;" glyph-name="flecha" d="M768 576c0 0-262.642-284.444-262.642-284.444s-249.358 284.444-249.358 284.444z" />
<glyph unicode="&#xe90d;" glyph-name="radiobutton-ok" d="M725.333 426.667c0-106.039-85.961-192-192-192s-192 85.961-192 192c0 106.039 85.961 192 192 192s192-85.961 192-192z" />
<glyph unicode="&#xe90e;" glyph-name="side" d="M330.133 181.867l244.267 244.8-244.267 244.8 75.2 75.2 320-320-320-320z" />
<glyph unicode="&#xe90f;" glyph-name="volver" d="M299.813 482.667l313.040 313.040-79.52 78.96-448-448 448-448 78.96 78.96-312.48 313.040h681.52v112z" />
<glyph unicode="&#xe910;" glyph-name="agregar" d="M810.667 405.333h-256v-256h-85.333v256h-256v85.333h256v256h85.333v-256h256z" />
<glyph unicode="&#xe911;" glyph-name="avatar" d="M511.989 874.667c-235.504 0-426.656-191.152-426.656-426.656 0-235.525 191.152-426.677 426.656-426.677 235.525 0 426.677 191.152 426.677 426.677 0 235.504-191.152 426.656-426.677 426.656v0zM511.989 746.676c70.835 0 128.012-57.177 128.012-128.012 0-70.814-57.177-127.99-128.012-127.99-70.814 0-127.99 57.177-127.99 127.99 0 70.835 57.177 128.012 127.99 128.012v0zM511.989 140.795c-106.659 0-200.963 54.633-256.002 137.395 1.282 84.921 170.675 131.41 256.002 131.41 84.921 0 254.72-46.489 256.002-131.41-55.039-82.762-149.322-137.395-256.002-137.395v0z" />
<glyph unicode="&#xe912;" glyph-name="ayuda-chat" d="M557.414 405.759c-66.447 0.002-124.914 33.305-158.075 83.356-30.047-45.349-80.865-76.951-139.574-82.488v-153.635c0-121.664 103.584-220.644 230.902-220.644 89.874 0 167.912 49.324 206.045 121.13h-206.045v55.183h226.219c3.070 14.325 4.683 29.151 4.683 44.33v152.767h-164.154zM71.33 489.115c-39.33 0-71.33-30.95-71.33-68.99v-61.856c0-38.040 32-68.988 71.33-68.988h15.258v199.835h-15.258zM490.668 831.69c-190.979 0-346.354-152.666-346.354-340.317v-446.791c0-36.604 0-69.328 165.343-69.328-92.24 51.774-103.488 90.58-103.488 137.404v341.767h38.683c70.218 0 127.343 56.129 127.343 125.124v15.943h56.918v-15.943c0-68.994 57.125-125.124 127.343-125.124h218.711v-341.767c0-68.076-18.978-119.972-92.912-137.404 131.608 0 154.765 17.432 154.765 69.328v446.791c0 187.651-155.373 340.317-346.352 340.317zM910.005 489.115h-15.26v-199.835h15.26c39.329 0 71.328 30.949 71.328 68.99v61.858c0 38.037-31.999 68.988-71.328 68.988z" />
<glyph unicode="&#xe913;" glyph-name="buscar" d="M673.179 526.323c0-130.729-106.817-237.112-238.080-237.112s-238.080 106.383-238.080 237.112c0 130.729 106.817 237.112 238.080 237.112s238.080-106.383 238.080-237.112v0zM895.121 143.16l-206.945 209.586c35.338 50.837 54.098 111.667 54.098 173.366 0 169.021-137.426 305.888-307.137 305.888s-307.137-136.868-307.137-305.888c0-169.021 137.426-305.888 307.137-305.888 61.951 0 123.029 18.684 174.073 53.878l206.945-209.152c10.034-10.428 89 68.217 78.966 78.21z" />
<glyph unicode="&#xe914;" glyph-name="calendario" d="M810.667 789.333h-42.667v85.333h-85.333v-85.333h-341.333v85.333h-85.333v-85.333h-42.667c-47.36 0-84.907-38.4-84.907-85.333l-0.427-597.333c0-46.933 37.973-85.333 85.333-85.333h597.333c46.933 0 85.333 38.4 85.333 85.333v597.333c0 46.933-38.4 85.333-85.333 85.333zM810.667 106.667h-597.333v469.333h597.333v-469.333zM298.667 490.667h213.333v-213.333h-213.333v213.333z" />
<glyph unicode="&#xe915;" glyph-name="celular" d="M864.533 645.156l-40.889-40.889c73.6-73.6 73.6-188.089 0-265.778l40.889-40.889c102.222 94.044 102.222 249.422 0 347.556zM778.667 559.289l-40.889-40.889c20.444-28.622 20.444-65.422 0-94.044l40.889-40.889c49.067 49.067 49.067 122.667 0 175.822zM615.111 919.111h-408.889c-44.978 0-81.778-36.8-81.778-81.778v-736c0-44.978 36.8-81.778 81.778-81.778h408.889c44.978 0 81.778 36.8 81.778 81.778v736c0 44.978-36.8 81.778-81.778 81.778zM615.111 142.222h-408.889v654.222h408.889v-654.222z" />
<glyph unicode="&#xe916;" glyph-name="check" d="M512 874.667c-235.52 0-426.667-191.147-426.667-426.667s191.147-426.667 426.667-426.667c235.52 0 426.667 191.147 426.667 426.667s-191.147 426.667-426.667 426.667zM426.667 234.667l-213.333 213.333 60.16 60.16 153.173-152.747 323.84 323.84 60.16-60.587-384-384z" />
<glyph unicode="&#xe917;" glyph-name="correo" d="M789.333 704h-512c-35.2 0-63.68-28.8-63.68-63.984l-0.32-384c0-35.2 28.8-64.016 64-64.016h512c35.2 0 64 28.816 64 64.016v384c0 35.184-28.8 63.984-64 63.984v0zM789.333 576.016l-256-160.016-256 160.016v64l256-160 256 160v-64z" />
<glyph unicode="&#xe918;" glyph-name="dropdown" d="M497.067 392.31l234.674 246.659 71.423-75.070-306.097-321.73-306.097 321.73 71.423 75.070z" />
<glyph unicode="&#xe919;" glyph-name="editar" d="M128 224v-160h160l471.893 471.893-160 160-471.893-471.893zM883.627 659.627c16.64 16.64 16.64 43.52 0 60.16l-99.84 99.84c-16.64 16.64-43.52 16.64-60.16 0l-78.080-78.080 160-160 78.080 78.080z" />
<glyph unicode="&#xe91a;" glyph-name="eliminar" d="M256 149.333c0-46.933 38.4-85.333 85.333-85.333h341.333c46.933 0 85.333 38.4 85.333 85.333v512h-512v-512zM810.667 789.333h-149.333l-42.667 42.667h-213.333l-42.667-42.667h-149.333v-85.333h597.333v85.333z" />
<glyph unicode="&#xe91b;" glyph-name="escudo" d="M533.333 960l-405.333-186.184v-279.264c0-258.323 172.934-499.894 405.333-558.552 232.377 58.657 405.333 300.228 405.333 558.552v279.264l-405.333 186.184zM443.247 215.264l-180.128 186.184 63.496 65.646 116.632-120.091 296.806 306.722 63.496-66.093-360.301-372.368z" />
<glyph unicode="&#xe91c;" glyph-name="hombre" d="M874.667 704c-111.36-29.867-241.92-42.667-362.667-42.667s-251.307 12.8-362.667 42.667l-21.333-85.333c79.36-21.333 170.667-35.413 256-42.667v-554.667h85.333v256h85.333v-256h85.333v554.667c85.333 7.253 176.64 21.333 256 42.667l-21.333 85.333zM512 704c46.933 0 85.333 38.4 85.333 85.333s-38.4 85.333-85.333 85.333c-46.933 0-85.333-38.4-85.333-85.333s38.4-85.333 85.333-85.333z" />
<glyph unicode="&#xe91d;" glyph-name="Info" d="M512 874.667c-235.52 0-426.667-191.147-426.667-426.667s191.147-426.667 426.667-426.667c235.52 0 426.667 191.147 426.667 426.667s-191.147 426.667-426.667 426.667zM554.667 234.667h-85.333v256h85.333v-256zM554.667 576h-85.333v85.333h85.333v-85.333z" />
<glyph unicode="&#xe91e;" glyph-name="mercados" d="M522.221 874.667c-240.898 0-436.888-195.672-436.888-436.169s195.989-436.156 436.888-436.156c240.896 0 436.885 195.657 436.885 436.156 0.003 240.499-195.987 436.169-436.885 436.169zM139.426 438.498c0 64.012 15.923 124.347 43.901 177.403-0.15-68.571 36.578-125.645 53.797-142.835 56.128-56.038 137.546-38.38 148.079-85.192 10.536-46.812-55.986-46.982-51.524-82.761 4.464-35.914 91.043-45.369 71.806-78.441-25.559-43.948 17.106-47.059 4.832-101.267-6.675-29.487 36.071-35.185 51.867-12.801 12.174 17.245 9.736 38.291 34.053 64.185 29.703 31.632 98.889 36.75 91.056 89.050-13.025 86.958-97.668 100.533-134.587 120.866-41.793 23.020-31.634 78.094-40.587 104.313-12.71 37.202-55.763-10.424-78.706 11.206-37.889 35.721 6.732 86.066 38.407 85.055 67-2.135 87.497-67.236 112.109-64.939 24.071 2.16 39.722 35.641 43.831 53.466 8.926 38.732-14.986 21.437-24.704 41.616-14.94 31.020 65.056 60.442 75.718 81.287 20.448 39.986-101.392 51.096-105.146 93.871-1.533 17.452 32.042 25.926 70.231 27.435 42.788-2.392 83.688-11.877 121.617-27.222 36.446-26.149 58.579-70.169 62.721-118.976 3.659-43.099-43.168-81.814-90.703-96.076-33.562-10.072-59.292-54.4-43.816-90.54 10.619-24.793 84.766-20.107 78.411-73.223-5.217-43.616 51.882-55.129 72.164-52.969 20.15 2.297 51.341-33.309 35.656-48.969-15.686-15.662-45.112-16.214-40.602-56.749 1.303-11.705 36.994-10.249 36.994-27.924 0-18.014-18.494-38.458-4.349-59.061 3.136-4.569 6.322-8.010 9.516-10.664-68.24-62.826-159.311-101.292-259.238-101.292-211.077-0.005-382.801 171.433-382.801 382.149zM771.22 724.521c60.887-43.182 101.76-106.416 122.617-189.701s-20.015-70.298-122.617 38.961v150.74z" />
<glyph unicode="&#xe91f;" glyph-name="mujer" d="M874.667 704c-111.36-29.867-241.92-42.667-362.667-42.667s-251.307 12.8-362.667 42.667l-21.333-85.333c79.36-21.333 190.552-35.413 275.885-42.667l-73.552-341.333h53.667v-213.333h85.333v207.938h85.333v-207.938h85.333v212.594h55.448l-68.271 341.333c85.333 7.253 189.463 22.073 268.823 43.406l-21.333 85.333zM512 704c46.933 0 85.333 38.4 85.333 85.333s-38.4 85.333-85.333 85.333c-46.933 0-85.333-38.4-85.333-85.333s38.4-85.333 85.333-85.333z" />
<glyph unicode="&#xe920;" glyph-name="oficina" d="M622.933 465.965v215.579l-102.4 107.789-102.4-107.789v-71.86h-204.8v-503.018h614.4v359.298h-204.8zM281.6 250.386h68.267v-71.86h-68.267v71.86zM281.6 394.105h68.267v-71.86h-68.267v71.86zM281.6 537.825h68.267v-71.86h-68.267v71.86zM486.4 250.386h68.267v-71.86h-68.267v71.86zM486.4 394.105h68.267v-71.86h-68.267v71.86zM486.4 537.825h68.267v-71.86h-68.267v71.86zM486.4 681.544h68.267v-71.86h-68.267v71.86zM691.2 250.386h68.267v-71.86h-68.267v71.86zM691.2 394.105h68.267v-71.86h-68.267v71.86z" />
<glyph unicode="&#xe921;" glyph-name="proceso" d="M547.845 679.478c0-60.684-49.291-109.855-109.975-109.855s-109.855 49.171-109.855 109.855c0 60.684 49.171 109.855 109.855 109.855s109.975-49.171 109.975-109.855zM357.877 464.205c0-51.69-41.855-93.545-93.545-93.545s-93.665 41.855-93.665 93.545c0 51.69 41.975 93.665 93.665 93.665s93.545-41.975 93.545-93.665zM425.757 223.026c0-47.372-38.497-85.869-85.989-85.869s-85.989 38.497-85.989 85.869c0 47.492 38.497 85.989 85.989 85.989s85.989-38.497 85.989-85.989zM628.437 137.157c0-40.416-32.741-73.157-73.037-73.157-40.416 0-73.037 32.741-73.037 73.157 0 40.296 32.621 73.037 73.037 73.037 40.296 0 73.037-32.741 73.037-73.037zM800.776 223.026c0-34.899-28.303-63.083-63.203-63.083s-63.203 28.183-63.203 63.083c0 34.899 28.303 63.203 63.203 63.203s63.203-28.303 63.203-63.203zM869.616 380.254c0-29.503-23.866-53.369-53.249-53.369-29.503 0-53.369 23.866-53.369 53.369 0 29.383 23.866 53.249 53.369 53.249 29.383 0 53.249-23.866 53.249-53.249zM836.035 533.164c0-21.467-17.39-38.857-38.857-38.857s-38.977 17.39-38.977 38.857c0 21.467 17.51 38.857 38.977 38.857s38.857-17.39 38.857-38.857zM738.053 640.621c0-16.43-13.312-29.743-29.743-29.743s-29.743 13.312-29.743 29.743c0 16.43 13.312 29.743 29.743 29.743s29.743-13.312 29.743-29.743z" />
<glyph unicode="&#xe922;" glyph-name="telefono" d="M690.844 322.489c-12.444 3.911-26.311 1.067-36.267-8.533l-78.222-78.222c-100.622 51.2-183.093 133.333-234.311 234.311l78.222 78.578c9.956 9.244 12.8 23.111 8.889 35.556-13.156 39.822-20.267 82.489-20.267 126.933 0 19.556-16 35.556-35.556 35.556h-124.444c-19.556 0-35.556-16-35.556-35.556 0-333.867 270.578-604.444 604.444-604.444 19.573 0 35.556 16 35.556 35.556v124.444c0 19.556-15.982 35.556-35.556 35.556-44.444 0-87.093 7.111-126.933 20.267z" />
<glyph unicode="&#xe923;" glyph-name="acciones-vender" d="M298.667 192c-46.933 0-84.907-38.4-84.907-85.333s37.973-85.333 84.907-85.333c46.933 0 85.333 38.4 85.333 85.333s-38.4 85.333-85.333 85.333zM725.333 192c-46.933 0-84.907-38.4-84.907-85.333s37.973-85.333 84.907-85.333c46.933 0 85.333 38.4 85.333 85.333s-38.4 85.333-85.333 85.333zM305.92 330.667l1.28 5.12 38.4 69.547h317.867c32 0 60.16 17.493 74.667 43.947l164.693 299.093-74.24 40.96h-0.427l-46.933-85.333-117.76-213.333h-299.52l-5.547 11.52-95.573 201.813-40.533 85.333-40.107 85.333h-139.52v-85.333h85.333l153.6-323.84-57.6-104.533c-6.827-11.947-10.667-26.027-10.667-40.96 0-46.933 38.4-85.333 85.333-85.333h512v85.333h-494.080c-5.547 0-10.667 4.693-10.667 10.667zM597.333 746.667v-170.667h-170.667v170.667h-85.333l170.667 170.667 170.667-170.667z" />
<glyph unicode="&#xe924;" glyph-name="adjuntar" d="M512 0c-129.707 0-234.667 104.96-234.667 234.667v448c0 94.293 76.373 170.667 170.667 170.667s170.667-76.373 170.667-170.667v-362.667c0-58.88-47.787-106.667-106.667-106.667s-106.667 47.787-106.667 106.667v320h85.333v-323.84c0-23.467 42.667-23.467 42.667 0v366.507c0 46.933-38.4 85.333-85.333 85.333s-85.333-38.4-85.333-85.333v-448c0-82.347 66.987-149.333 149.333-149.333s149.333 66.987 149.333 149.333v405.333h85.333v-405.333c0-129.707-104.96-234.667-234.667-234.667v0z" />
<glyph unicode="&#xe925;" glyph-name="alerta-agregar" d="M512 104c41.067 0 74.667 33.6 74.667 74.667h-149.333c0-41.067 33.227-74.667 74.667-74.667zM736 328l74.667-74.667v-37.333h-597.333v37.333l74.667 74.667v186.667c0 114.987 60.853 210.56 168 235.947v25.387c0 30.987 25.013 56 56 56s56-25.013 56-56v-25.387c106.773-25.387 168-121.333 168-235.947v-186.667zM649.481 453.488v66.269h-99.556v98.909h-66.37v-98.909h-99.556v-66.269h99.556v-98.909h66.37v98.909h99.556z" />
<glyph unicode="&#xe926;" glyph-name="comparar-acciones" d="M298.667 192c-46.933 0-84.907-38.4-84.907-85.333s37.973-85.333 84.907-85.333c46.933 0 85.333 38.4 85.333 85.333s-38.4 85.333-85.333 85.333zM725.333 192c-46.933 0-84.907-38.4-84.907-85.333s37.973-85.333 84.907-85.333c46.933 0 85.333 38.4 85.333 85.333s-38.4 85.333-85.333 85.333zM305.92 330.667l1.28 5.12 38.4 69.547h317.867c32 0 60.16 17.493 74.667 43.947l164.693 299.093-74.24 40.96h-0.427l-46.933-85.333-117.76-213.333h-299.52l-5.547 11.52-95.573 201.813-40.533 85.333-40.107 85.333h-139.52v-85.333h85.333l153.6-323.84-57.6-104.533c-6.827-11.947-10.667-26.027-10.667-40.96 0-46.933 38.4-85.333 85.333-85.333h512v85.333h-494.080c-5.547 0-10.667 4.693-10.667 10.667zM597.333 746.667v170.667h-170.667v-170.667h-85.333l170.667-170.667 170.667 170.667z" />
<glyph unicode="&#xe927;" glyph-name="comparar" d="M358.912 323.048h-358.912v-103.619h358.912v-155.429l204.288 207.238-204.288 207.238v-155.429zM665.088 374.857v155.429h358.912v103.619h-358.912v155.429l-204.288-207.238 204.288-207.238z" />
<glyph unicode="&#xe928;" glyph-name="comprobante" d="M622.507 849.493c-16.213 16.213-37.973 25.173-60.587 25.173h-305.92c-46.933 0-85.333-38.4-85.333-85.333v-682.667c0-46.933 37.973-85.333 84.907-85.333h512.427c46.933 0 85.333 38.4 85.333 85.333v476.587c0 22.613-8.96 44.373-25.173 60.16l-205.653 206.080zM640 192h-256c-23.467 0-42.667 19.2-42.667 42.667s19.2 42.667 42.667 42.667h256c23.467 0 42.667-19.2 42.667-42.667s-19.2-42.667-42.667-42.667zM640 362.667h-256c-23.467 0-42.667 19.2-42.667 42.667s19.2 42.667 42.667 42.667h256c23.467 0 42.667-19.2 42.667-42.667s-19.2-42.667-42.667-42.667zM554.667 618.667v192l234.667-234.667h-192c-23.467 0-42.667 19.2-42.667 42.667z" />
<glyph unicode="&#xe929;" glyph-name="descargar" d="M881.742 573.511h-203.164v301.156h-304.761v-301.156h-203.15l355.531-351.289 355.545 351.289zM170.667 21.333h711.111v100.267h-711.111v-100.267z" />
<glyph unicode="&#xe92a;" glyph-name="favoritos-off" d="M896 526.763l-260.757 22.485-101.909 240.085-101.909-240.448-260.757-22.123 198.016-171.541-59.477-254.955 224.128 135.275 224.128-135.275-59.115 254.955 197.653 171.541zM533.333 303.36l-136.363-82.325 36.267 155.221-120.405 104.448 158.848 13.781 61.653 146.155 62.016-146.517 158.848-13.781-120.405-104.448 36.267-155.221-136.725 82.688z" />
<glyph unicode="&#xe92b;" glyph-name="favoritos" d="M938.667 549.502l-306.773 27.846-119.893 297.319-119.893-297.768-306.773-27.396 232.96-212.435-69.973-315.733 263.68 167.523 263.68-167.523-69.547 315.733z" />
<glyph unicode="&#xe92c;" glyph-name="operar" d="M537.911 505.373c-116.785 30.767-154.342 62.578-154.342 112.119 0 56.841 52.013 96.474 138.908 96.474 91.576 0 125.583-44.326 128.618-109.511h113.699c-3.55 89.695-57.621 172.089-165.146 198.684v114.204h-154.342v-112.64c-99.756-21.902-180.066-87.609-180.066-188.255 0-120.462 98.264-180.433 241.803-215.372 128.618-31.289 154.342-77.179 154.342-125.677 0-35.982-25.209-93.345-138.908-93.345-105.93 0-147.654 47.976-153.262 109.511h-113.184c6.174-114.204 90.496-178.347 189.275-199.727v-113.161h154.342v112.119c100.322 19.295 180.066 78.222 180.066 185.126 0 148.101-124.966 198.684-241.803 229.452z" />
<glyph unicode="&#xe92d;" glyph-name="reinversion" d="M668.444 279.463h-178.794v257.869h-268.203v-257.869h-178.781l312.883-300.796zM355.556 575.725h178.794v-257.869h268.203v257.869h178.781l-312.883 300.796z" />
<glyph unicode="&#xe92e;" glyph-name="rescate" d="M621.971 243.090c57.792-0.271 105.583 44.866 108.504 102.481v1.48l105.261 118.020c22.203 25.695 60.714 29.441 87.47 8.509 12.881-10.635 20.913-26.013 22.274-42.643s-4.065-33.106-15.047-45.686l-210.151-240.479c-28.021-32.057-68.57-50.44-111.191-50.408h-315.875l-54.854-54.755-195.696 190.441 140.193 138.738c58.091 57.633 144.065 77.067 221.362 50.038l30.763-10.822h189.488c16.152 0.008 31.618-6.521 42.864-18.095s17.31-27.204 16.809-43.32c-2.12-32.577-29.473-57.765-62.174-57.252h-113.693c-12.794 0-23.165-10.352-23.165-23.123s10.371-23.123 23.165-23.123h113.693zM524.301 682.953c12.91-7.807 26.383-14.506 40.29-20.032 5.946-2.504 11.891-5.092 17.759-7.846 7.005-3.193 13.56-7.406 19.48-12.52 7.028-5.133 10.743-14.055 9.601-23.060s-6.945-16.553-14.999-19.509c-10.614-4.763-22.237-6.378-33.64-4.674-18.82 2.2-37.11 8.026-53.98 17.195-3.524 2.323-7.524 3.698-11.657 4.006-9.388 0-12.282-10.1-13.925-15.525-3.051-10.434-5.789-20.951-8.449-31.468-4.381-17.195-1.643-23.622 13.456-31.468 16.592-8.038 34.199-13.438 52.259-16.026 2.869-0.338 5.7-0.981 8.449-1.92 0.593-3.215 0.829-6.492 0.704-9.766v-20.617c-0.319-5.322 1.507-10.535 5.019-14.33s8.375-5.809 13.366-5.536h28.946c4.878-0.288 9.633 1.702 13.027 5.451s5.093 8.889 4.653 14.080v28.463c0 6.344 1.408 8.347 7.823 10.267 20.732 5.809 39.214 18.458 52.807 36.142 17.758 22.854 25.043 52.964 19.871 82.133-5.816 31.092-24.313 57.803-50.46 72.868-14.71 8.28-29.861 15.638-45.375 22.036l-5.946 2.588c-9.086 3.889-17.618 9.115-25.347 15.525-5.44 4.201-8.411 11.142-7.823 18.28 1.271 7.293 6.062 13.324 12.595 15.859 4.683 1.983 9.669 3.030 14.708 3.088 20.691 1.338 41.356-3.032 60.004-12.687 19.245-9.933 23.47 5.008 25.034 11.352 2.582 8.347 4.85 16.694 7.119 25.458l2.66 10.016c1.639 4.756 1.398 10.017-0.666 14.58s-5.777 8.037-10.286 9.625c-13.255 6.24-27.222 10.59-41.541 12.938-12.908 2.17-12.908 2.17-12.908 16.026 0 29.131-2.112 33.387-28.79 33.387h-14.395c-15.646-0.501-19.871-5.425-20.262-21.785v-17.445c0-12.27 0-12.27-11.422-16.694-41.62-16.109-63.994-46.492-66.498-90.23-2.269-36.81 13.769-65.857 48.739-88.226z" />
<glyph unicode="&#xe92f;" glyph-name="acciones" d="M807.214 809.858l-229.044-229.044-187.738 187.738-347.765-348.24 66.17-66.194 281.595 281.595 187.738-187.714 295.688 295.214 107.475-107.499v281.619h-281.595zM246.725 365.517l122.435 143.7v-487.228h-122.435zM42.667 296.69l61.217-48.407 61.217 48.407v-274.701h-122.435zM450.783 468.406l122.435-108.638v-337.779h-122.435zM654.841 389.254l122.435 119.964v-487.228h-122.435zM858.899 566.59l40.812 69.136 40.812-69.136v-544.601h-81.623z" />
<glyph unicode="&#xe930;" glyph-name="cartera" d="M757.333 698.407v88.13c0 48.912-39.872 88.13-89.6 88.13h-268.8c-49.728 0-89.6-39.218-89.6-88.13v-88.13h-134.4c-49.728 0-89.6-39.218-89.6-88.13v-484.714c0-48.912 39.872-88.13 89.6-88.13 341.501 0 566.334 0 674.499 0 54.203 0 131.901 0 131.901 134.441 0 10.801 0 156.935 0 438.402 0 48.912-39.872 88.13-89.6 88.13h-134.4zM667.733 786.537v-88.13h-268.8v88.13h268.8zM256 187.331v175.336h140.623v-175.336h-140.623zM469.333 184.309v263.691h140.623v-263.691h-140.623zM682.667 182.662v350.672h140.623v-350.672h-140.623z" />
<glyph unicode="&#xe931;" glyph-name="deposito-plazo" d="M378.495-2.558c-209.037 0-378.495 175.906-378.495 392.898s169.458 392.898 378.495 392.898c67.645 0 148.993-14.229 186.099-50.693s3.783-152.73 37.106-206.874c25.214-40.969 123.377-20.434 132.542-69.879 4.482-24.177 22.748-39.917 22.748-65.452 0-216.992-169.458-392.898-378.495-392.898zM323.576 73.699h58.818v79.873c82.072 14.263 125.843 72.742 125.843 138.352 0 68.463-36.932 109.826-120.372 142.631-62.922 25.674-90.279 44.216-90.279 75.594 0 25.674 19.15 54.2 71.129 54.2 50.611 0 83.44-17.116 101.222-25.674l20.518 71.316c-24.621 12.837-56.082 24.247-102.59 25.674v71.316h-60.186v-75.594c-73.864-14.263-119.004-64.184-119.004-131.221 0-71.316 50.611-108.4 128.579-138.352 54.714-21.395 80.704-44.216 80.704-78.447 0-37.084-31.461-61.331-77.968-61.331-45.139 0-87.543 17.116-116.268 34.231l-20.518-72.742c27.357-18.542 73.864-32.805 120.372-34.231v-75.594zM773.199 917.333c-136.258 0-246.597-112.64-246.597-251.429s110.339-251.429 246.597-251.429c136.505 0 247.091 112.64 247.091 251.429s-110.586 251.429-247.091 251.429zM773.446 481.524c-100.013 0-181.019 82.51-181.019 184.381s81.006 184.381 181.019 184.381c100.013 0 181.019-82.51 181.019-184.381s-81.006-184.381-181.019-184.381zM806.358 816.762h-49.369v-167.619l119.144-72.411 24.684 41.234-94.459 56.32z" />
<glyph unicode="&#xe932;" glyph-name="derivados" d="M722.667 330.184c-7.942-14.761-22.576-23.846-38.509-23.846h-344.411c-15.861 0-30.542 9.085-38.484 23.846-7.942 14.713-7.942 32.932 0 47.692l86.115 160.055c7.918 14.761 22.576 23.846 38.484 23.846h172.157c15.861 0 30.542-9.085 38.484-23.846l86.115-160.055c7.991-14.808 7.991-32.979 0.048-47.692zM469.955 85.761l-86.091 160.032c-7.942 14.761-22.6 23.846-38.484 23.846h-172.181c-15.861 0-30.542-9.085-38.46-23.846l-86.115-160.032c-7.942-14.761-7.942-32.979 0-47.692 7.942-14.761 22.576-23.846 38.484-23.846h344.363c15.861 0 30.566 9.085 38.484 23.846 7.942 14.713 7.942 32.884 0 47.692zM975.355 85.761l-86.115 160.032c-7.942 14.761-22.576 23.846-38.46 23.846h-172.181c-15.861 0-30.566-9.085-38.484-23.846l-86.091-160.032c-7.942-14.761-7.942-32.979 0-47.692 7.918-14.761 22.576-23.846 38.46-23.846h344.387c15.885 0 30.59 9.085 38.509 23.846 7.942 14.713 7.942 32.884-0.024 47.692zM703.644 596.587c15.253-15.253 39.502-15.253 54.756 0 24.249 24.64 59.449 60.231 84.089 84.871 15.253 14.862 15.253 39.502 0 54.364-14.862 14.862-39.502 14.862-54.364 0l-84.871-84.089c-15.253-14.862-15.253-39.502 0-54.364l0.391-0.782zM265.991 596.978c14.862-15.253 39.502-15.253 54.756 0 14.862 14.862 14.862 39.502 0 54.364l-84.089 84.871c-14.862 15.253-39.502 15.253-54.364 0l-0.782-0.391c-15.253-15.253-15.253-39.502 0-54.364 24.64-24.249 60.231-59.84 84.48-84.48zM511.218 679.111h1.173c21.511 0 38.72 17.209 38.72 38.329v118.898c0 21.12-17.209 38.329-38.329 38.329h-1.173c-21.511 0-38.72-17.209-38.72-38.329v-118.507c0-21.511 17.209-38.72 38.329-38.72zM703.644 596.587c15.253-15.253 39.502-15.253 54.756 0 24.249 24.64 59.449 60.231 84.089 84.871 15.253 14.862 15.253 39.502 0 54.364-14.862 14.862-39.502 14.862-54.364 0l-84.871-84.089c-15.253-14.862-15.253-39.502 0-54.364l0.391-0.782zM265.991 596.978c14.862-15.253 39.502-15.253 54.756 0 14.862 14.862 14.862 39.502 0 54.364l-84.089 84.871c-14.862 15.253-39.502 15.253-54.364 0l-0.782-0.391c-15.253-15.253-15.253-39.502 0-54.364 24.64-24.249 60.231-59.84 84.48-84.48z" />
<glyph unicode="&#xe933;" glyph-name="ff-apv" d="M938.667 789.333h-853.333v-682.667h853.333v682.667zM304.595 367.824h-90.364l-15.781-47.824h-70.45l100.321 256h61.996l101.072-256h-70.826l-15.969 47.824zM230.012 415.473h58.802l-29.495 88.791-29.307-88.791zM477.245 406.857v-86.857h-65.941v256h109.151c20.916 0 39.421-3.604 55.515-10.813s28.556-17.465 37.386-30.769c8.83-13.304 13.245-28.396 13.245-45.275 0-24.967-9.55-44.923-28.65-59.868s-45.307-22.418-78.622-22.418h-42.082zM477.245 454.505h43.209c12.775 0 22.513 2.989 29.213 8.967s10.051 14.418 10.051 25.319c0 11.956-3.444 21.509-10.333 28.659s-16.282 10.784-28.18 10.901h-43.961v-73.846zM767.875 389.626l54.481 186.374h73.644l-92.055-256h-72.141l-91.303 256h73.080l54.294-186.374z" />
<glyph unicode="&#xe934;" glyph-name="ffii" d="M942.614 806.136l-101.243 68.53-362.55-174.785v-123.387l-202.279-68.53v-89.569l-150.638-42.714v-351.547l70.439 1.076v285.769l222.955 51.924-0.949-337.692 101.183-0.394v350.77l-61.76 94.229-96.276-25.826v6.544l225.309 68.82v-494.538l151.726 0.394v544.436l-102.795 65.141-71.042-25.365v25.365l227.793 101.687v-715.141h150.128z" />
<glyph unicode="&#xe935;" glyph-name="ffmm" d="M484.838 470.158h-286.4v-101.584h622.075v101.584h-286.4zM262.24 325.251h478.519l-30.281-317.703h-417.955l-30.283 317.703zM494.948 21.99v2.268h28.625v34.014c39.36 5.669 59.636 30.613 59.636 58.958 0 29.479-17.891 47.62-57.251 61.225-29.818 11.338-42.938 19.275-42.938 32.88 0 11.338 8.349 23.81 33.396 23.81 23.854 0 39.36-7.937 47.709-11.338l9.542 30.613c-11.927 5.669-26.24 10.204-48.901 11.338v30.613h-28.625v-32.88c-34.589-5.669-56.058-28.345-56.058-56.69 0-31.746 23.854-47.62 60.829-60.091 26.24-9.070 38.167-19.275 38.167-34.014 0-15.873-14.313-26.077-36.974-26.077-21.469 0-41.745 6.803-54.865 14.739l-9.542-31.746c13.12-7.937 34.589-13.606 57.251-14.739v-32.88zM426.667 628.513h78.769v-216.615h-78.769zM819.702 697.074l-2.626 24.564-26.816 2.405c-4.595 0.421-113.338 9.501-177.606-49.369s-54.355-158.48-53.895-162.689l2.626-24.564 26.816-2.405c1.149 0 8.665-0.752 20.35-0.752 57.446-2.075 113.623 15.83 157.255 50.121 64.268 58.87 54.355 158.48 53.895 162.689zM719.362 576.809c-26.695-20.5-60.351-31.844-95.187-32.081 0.31 31.895 12.674 62.707 34.989 87.192 26.695 20.5 60.351 31.844 95.187 32.081-0.341-31.853-12.703-62.619-34.989-87.072v-0.12zM320.146 910.399c5.715-1.178 140.546-30.071 191.184-120.814 26.929-59.367 27.156-125.445 0.637-184.974-4.84-12.275-8.94-19.875-9.416-21.081l-14.265-27.222-33.325 6.935c-5.715 1.178-140.546 30.071-191.184 120.814s6.323 201.394 8.779 206.055l14.265 27.222 33.325-6.935zM436.415 757.535l-0.158 0.047c-22.86 33.062-58.115 58.188-99.778 71.115-14.119-36.688-13.172-76.52 2.673-112.653 22.89-33.104 58.206-58.251 99.936-71.162 14.119 36.688 13.172 76.52-2.673 112.653z" />
<glyph unicode="&#xe936;" glyph-name="moneda-extranjera" d="M512 874.667c-235.52 0-426.667-191.147-426.667-426.667s191.147-426.667 426.667-426.667c235.52 0 426.667 191.147 426.667 426.667s-191.147 426.667-426.667 426.667zM510.773 613.533v-244.62c0-27.722-5.964-51.722-17.893-72s-29.044-35.722-51.345-46.332c-22.302-10.61-48.665-15.914-79.092-15.914-45.986 0-82.204 11.807-108.655 35.422s-39.935 55.957-40.454 97.027v246.417h91.54v-248.214c1.037-40.899 20.227-61.348 57.569-61.348 18.844 0 33.106 5.134 42.788 15.401s14.522 26.952 14.522 50.053v244.107h91.021zM682.667 236.641c-18.637 2.465-36.043 7.241-52.218 14.326-24.808 10.866-43.479 25.754-56.013 44.663s-18.801 40.684-18.801 65.326h91.28c0-20.021 5.23-34.781 15.689-44.278s27.445-14.246 50.956-14.246c15.041 0 26.926 3.209 35.656 9.626s13.096 15.444 13.096 27.080c0 13.177-4.711 23.444-14.133 30.802s-25.975 14.973-49.66 22.845c-23.685 7.872-43.047 15.487-58.088 22.845-48.925 23.786-73.387 56.47-73.387 98.053 0 20.706 6.094 38.973 18.282 54.802s29.433 28.15 51.734 36.963c14.097 5.571 29.299 9.381 45.606 11.43v44.456h42.667v-43.050c21.943-1.309 41.919-5.973 59.929-13.991 21.524-9.583 38.25-23.23 50.178-40.941s17.893-37.946 17.893-60.706h-90.762c0 15.23-4.711 27.037-14.133 35.422s-22.172 12.578-38.25 12.578c-16.251 0-29.087-3.551-38.509-10.652s-14.133-16.128-14.133-27.080c0-9.583 5.186-18.267 15.559-26.053s28.611-15.829 54.716-24.128c26.105-8.3 47.542-17.241 64.311-26.824 40.8-23.273 61.199-55.358 61.199-96.257 0-32.685-12.447-58.353-37.342-77.005-22.598-16.932-52.817-26.179-90.658-27.741v-42.905h-42.667v44.641z" />
<glyph unicode="&#xe937;" glyph-name="mve" d="M511.573 874.667c-235.52 0-426.24-191.147-426.24-426.667s190.72-426.667 426.24-426.667c235.947 0 427.093 191.147 427.093 426.667s-191.147 426.667-427.093 426.667v0zM807.253 618.667h-125.867c-13.653 53.333-33.28 104.533-58.88 151.893 78.507-26.88 143.787-81.493 184.747-151.893v0zM512 787.627c35.413-51.2 63.147-107.947 81.493-168.96h-162.987c18.347 61.013 46.080 117.76 81.493 168.96v0zM181.76 362.667c-6.827 27.307-11.093 55.893-11.093 85.333s4.267 58.027 11.093 85.333h144.213c-3.413-28.16-5.973-56.32-5.973-85.333s2.56-57.173 5.973-85.333h-144.213zM216.747 277.333h125.867c13.653-53.333 33.28-104.533 58.88-151.893-78.507 26.88-143.787 81.067-184.747 151.893v0zM342.613 618.667h-125.867c40.96 70.827 106.24 125.013 184.747 151.893-25.6-47.36-45.227-98.56-58.88-151.893v0zM512 108.373c-35.413 51.2-63.147 107.947-81.493 168.96h162.987c-18.347-61.013-46.080-117.76-81.493-168.96v0zM611.84 362.667h-199.68c-3.84 28.16-6.827 56.32-6.827 85.333s2.987 57.6 6.827 85.333h199.68c3.84-27.733 6.827-56.32 6.827-85.333s-2.987-57.173-6.827-85.333v0zM622.507 125.44c25.6 47.36 45.227 98.56 58.88 151.893h125.867c-40.96-70.4-106.24-125.013-184.747-151.893v0zM698.027 362.667c3.413 28.16 5.973 56.32 5.973 85.333s-2.56 57.173-5.973 85.333h144.213c6.827-27.307 11.093-55.893 11.093-85.333s-4.267-58.027-11.093-85.333h-144.213z" />
<glyph unicode="&#xe938;" glyph-name="renta-fija" d="M175.151 198.726h134.749v314.384h-134.749v-314.384zM444.626 198.726h134.726v314.384h-134.726v-314.384zM85.333-25.84h853.333v134.749h-853.333v-134.749zM714.101 198.726h134.726v314.384h-134.726v-314.384zM511.989 917.333l-426.655-224.566v-89.84h853.333v89.84l-426.678 224.566z" />
</font>
</defs>
</svg>
